<?xml version="1.0" encoding="UTF-8" standalone="no"?>
<!-- Created with Inkscape (http://www.inkscape.org/) -->

<svg
   width="63.40934mm"
   height="65.357742mm"
   viewBox="0 0 63.409339 65.357741"
   version="1.1"
   id="svg1"
   xml:space="preserve"
   sodipodi:docname="logo.svg"
   inkscape:version="1.4.2 (ebf0e94, 2025-05-08)"
   xmlns:inkscape="http://www.inkscape.org/namespaces/inkscape"
   xmlns:sodipodi="http://sodipodi.sourceforge.net/DTD/sodipodi-0.dtd"
   xmlns:xlink="http://www.w3.org/1999/xlink"
   xmlns="http://www.w3.org/2000/svg"
   xmlns:svg="http://www.w3.org/2000/svg"><sodipodi:namedview
     id="namedview1"
     pagecolor="#ffffff"
     bordercolor="#000000"
     borderopacity="0.25"
     inkscape:showpageshadow="2"
     inkscape:pageopacity="0.0"
     inkscape:pagecheckerboard="0"
     inkscape:deskcolor="#d1d1d1"
     inkscape:document-units="mm"
     showguides="true"
     inkscape:zoom="10.031731"
     inkscape:cx="66.239812"
     inkscape:cy="105.21613"
     inkscape:window-width="1920"
     inkscape:window-height="1002"
     inkscape:window-x="0"
     inkscape:window-y="0"
     inkscape:window-maximized="1"
     inkscape:current-layer="g54" /><defs
     id="defs1"><linearGradient
       id="swatch69"
       inkscape:swatch="solid"><stop
         style="stop-color:#000000;stop-opacity:1;"
         offset="0"
         id="stop69" /></linearGradient><linearGradient
       id="linearGradient62"
       inkscape:collect="always"><stop
         style="stop-color:#a600ec;stop-opacity:1;"
         offset="0"
         id="stop62" /><stop
         style="stop-color:#000000;stop-opacity:1;"
         offset="1"
         id="stop63" /></linearGradient><linearGradient
       id="swatch17"
       inkscape:swatch="solid"><stop
         style="stop-color:#000000;stop-opacity:1;"
         offset="0"
         id="stop17" /></linearGradient><linearGradient
       inkscape:collect="always"
       xlink:href="#linearGradient62"
       id="linearGradient63"
       x1="70.069109"
       y1="67.686566"
       x2="101.20726"
       y2="67.686566"
       gradientUnits="userSpaceOnUse" /></defs><g
     inkscape:label="Layer 1"
     inkscape:groupmode="layer"
     id="layer1"
     transform="translate(-61.1762,-46.807413)"><g
       id="g28"
       style="fill:url(#linearGradient63);fill-opacity:0.537303;stroke:none;stroke-opacity:0.43772498"
       transform="translate(-0.07256963,0.07256963)"><g
         id="g54"><path
           d="m 70.95477,71.022868 h 6.933437 a 11.328393,11.473764 0 0 1 8.934009,-6.430025 H 74.685749 a 19.954953,18.066453 0 0 0 -3.730979,6.430025 z"
           style="opacity:0.997222;fill:#00ffdc;fill-opacity:1;stroke:none;stroke-width:0.292006;stroke-opacity:0.437725;paint-order:stroke fill markers"
           id="path26" /><path
           d="m 70.30701,77.081873 h 6.660575 a 11.397612,11.977468 0 0 1 -0.05891,-1.212327 11.397612,11.977468 0 0 1 1.124996,-5.188951 h -6.975802 a 20.076883,18.85958 0 0 0 -0.789099,5.235578 20.076883,18.85958 0 0 0 0.03824,1.1657 z"
           style="opacity:0.997222;fill:#00ffdc;fill-opacity:1;stroke:none;stroke-width:0.268337;stroke-opacity:0.437725;paint-order:stroke fill markers"
           id="path27" /><path
           d="m 94.869184,58.590843 h -9.64644 A 20.076883,18.393347 0 0 0 74.51177,64.793049 h 12.210624 a 11.397612,11.68137 0 0 1 1.28416,-0.07441 11.397612,11.68137 0 0 1 1.284159,0.07441 h 2.124418 a 14.250797,14.345385 0 0 1 6.435783,-5.294251 20.076883,18.393347 0 0 0 -2.98173,-0.907955 z"
           style="opacity:0.997222;fill:#00ffdc;fill-opacity:1;stroke:none;stroke-width:0.305435;stroke-opacity:0.437725;paint-order:stroke fill markers"
           id="path25" /><path
           d="m 94.26277,58.590843 a 20.742433,23.079575 0 0 1 3.080575,1.139283 14.723212,18.00028 0 0 1 3.364075,-1.139283 z"
           style="opacity:0.997222;fill:#00ffdc;fill-opacity:1;stroke:none;stroke-width:0.347764;stroke-opacity:0.437725;paint-order:stroke fill markers"
           id="path24" /><path
           d="m 76.567681,77.081873 h 7.980908 l 2.270146,-6.24303 h -9.184969 c -0.740543,1.57908 -1.125032,3.308661 -1.124996,5.060673 1.25e-4,0.394886 0.01979,0.789512 0.05891,1.182357 z"
           style="opacity:0.997222;fill:#00ffdc;fill-opacity:1;stroke:none;stroke-width:0.264999;stroke-opacity:0.437725;paint-order:stroke fill markers"
           id="path28"
           sodipodi:nodetypes="cccccc" /></g></g><path
       style="opacity:1;fill:#00ffb3;fill-opacity:1;fill-rule:nonzero;stroke:none;stroke-width:0.264999;stroke-dasharray:none;stroke-opacity:0;paint-order:stroke fill markers"
       d="m 119.38754,55.543521 c -1.70594,2.004672 -5.00081,2.817648 -9.44187,2.770981 -8.35736,0.666104 -17.275019,1.965591 -23.040198,18.781101 C 82.148039,95.891708 76.113155,98.77773 69.869065,99.0582 l -0.05132,6.56825 c 8.100443,-0.0482 15.622278,-3.65943 21.141565,-19.602128 2.298864,-10.21129 6.517084,-22.774888 19.24294,-21.654711 3.90503,0.0094 7.44662,-1.253221 9.18529,-8.82609 z"
       id="path57"
       sodipodi:nodetypes="cccccccc" /></g></svg>
